<?xml version="1.0" encoding="utf-8"?>
<!-- Generator: Adobe Illustrator 23.0.0, SVG Export Plug-In . SVG Version: 6.00 Build 0)  -->
<svg version="1.1" id="Capa_1" xmlns="http://www.w3.org/2000/svg" xmlns:xlink="http://www.w3.org/1999/xlink" x="0px" y="0px"
	 viewBox="0 0 398.8 203.5" style="enable-background:new 0 0 398.8 203.5;" xml:space="preserve">
<style type="text/css">
	.st0{fill:#0833AD;}
	.st1{fill:#0934AD;}
	.st2{fill:#0935AE;}
	.st3{fill:#0A35AE;}
	.st4{fill:#F89D13;}
</style>
<title>Logo Verified_by_Visa</title>
<g>
	<path class="st0" d="M263.1,183c3.5-8.4,7-16.6,10.4-24.8c5.8-13.9,11.6-27.8,17.4-41.6c1.8-4.3,4.9-6.4,9.5-6.4s9.1,0.1,13.6,0
		c1.4,0,1.7,0.5,2,1.7c2.8,13.3,5.5,26.7,8.3,40c2,9.8,4.1,19.7,6.2,29.5c0.3,1.5,0.1,1.9-1.5,1.9c-4.8-0.1-9.5-0.1-14.3,0
		c-1,0-1.5-0.3-1.7-1.4c-0.5-2.8-1.2-5.5-1.7-8.3c-0.2-0.9-0.5-1.3-1.4-1.3c-7.3,0-14.6,0-21.9,0c-1,0-1.3,0.5-1.5,1.2l-3,8.4
		c-0.2,0.7-0.4,1.2-1.4,1.2C275.8,183,269.6,183,263.1,183z M292.4,157.1H307c1.2,0,0.7-0.8,0.6-1.3c-0.6-2.8-1.1-5.6-1.7-8.4
		l-3.6-17.4C298.9,139.3,295.7,148.1,292.4,157.1L292.4,157.1z"/>
	<path class="st0" d="M231.4,184.2c-6.5-0.1-12.9-1.2-19.1-3.2c-1-0.1-1.7-1.1-1.6-2.1c0-0.1,0.1-0.3,0.1-0.4
		c0.8-4.4,1.5-8.8,2.2-13.3c0.2-1.2,0.5-1.3,1.5-0.8c5.9,3.1,12.5,4.6,19.1,4.4c2.4,0,4.7-0.5,6.9-1.4c5-2.2,5.6-7.2,1.4-10.6
		c-3.3-2.6-7.2-4-10.8-6.1c-2.1-1.2-4.1-2.6-5.9-4.1c-8-6.8-8.4-16.2-3.9-24.1c3.5-6.3,9.2-9.8,15.9-11.8c9.3-2.7,19.2-2.5,28.3,0.5
		c1.3,0.4,1.7,0.9,1.5,2.3c-0.8,4.3-1.5,8.6-2.1,12.9c-0.1,1-0.4,1.3-1.4,0.8c-5.2-2.5-10.9-3.5-16.6-3c-2.6,0.2-5,0.7-7,2.5
		c-2.4,2.2-2.6,4.7-0.3,7c2.6,2.6,5.9,4,9,5.6c3,1.5,5.8,3.2,8.5,5.3c9.1,7.1,9,17.9,4.2,26.2c-3.5,6-9,9.3-15.5,11.4
		C241.2,183.5,236.3,184.2,231.4,184.2z"/>
	<path class="st0" d="M143.5,148.9c1.1,3.3,1.3,6.8,2.4,10.6c0.8-2.1,1.5-3.9,2.2-5.7c5.2-14,10.4-28,15.5-42
		c0.2-1.1,1.3-1.9,2.4-1.7c6,0.1,11.9,0.1,18.2,0.1c-0.9,2.2-1.6,4.2-2.4,6.2c-7.5,18.6-15.1,37.1-22.7,55.6
		c-1.3,3.2-2.7,6.5-3.9,9.7c-0.2,0.8-1,1.4-1.9,1.3c-5.8-0.1-11.5-0.1-17.3,0c-1.1,0-1.5-0.4-1.8-1.5c-5.1-19.6-10.3-39.2-15.5-58.7
		c-0.3-1-0.5-2-0.7-3c1.8,0.4,3.2,1.7,4.6,2.7C132,129.1,139.3,138.3,143.5,148.9z"/>
	<path class="st1" d="M38.5,76.1c2.6-5.1,5.1-10.2,7.7-15.3c5.2-10.4,10.4-20.8,15.6-31.3c0.2-0.7,1-1.1,1.7-1.1
		c3.4,0,6.8,0.1,10.2,0c1.3,0,1.3,0.3,0.8,1.3C68.3,41.5,62,53.3,55.8,65.1c-4.6,8.7-9.2,17.4-13.8,26.2c-0.3,0.9-1.2,1.4-2.1,1.3
		c-3-0.1-6.1-0.1-9.1,0c-0.8,0.2-1.6-0.4-1.8-1.2c0-0.1,0-0.2,0-0.2c-3.1-14-6.2-28-9.3-42c-1.3-5.9-2.6-11.8-4-17.6
		c-0.3-1.1-0.2-1.5,1-1.7c3.6-0.5,7.1-1.1,10.7-1.8c1.1-0.2,1.4,0.1,1.6,1.1c2.3,11.9,4.7,23.8,7,35.7c0.7,3.8,1.5,7.5,2.3,11.3
		L38.5,76.1z"/>
	<path class="st1" d="M282.1,86.3c-1.9,1.7-3.9,3.2-6.1,4.6c-5.6,2.9-11.3,3.5-16.8-0.1c-3.6-2.3-5.1-6.1-5.5-10.1
		c-0.8-8.8,0.7-17.1,6-24.4c6-8.3,15.7-11.2,25.9-7.9c1.5,0.5,1.6,0,1.8-1.2c0.9-6.2,1.9-12.5,2.8-18.7c0-0.7,0.6-1.3,1.3-1.3
		c3-0.4,6-0.9,9-1.4c1.1-0.2,1.3,0.2,1.1,1.3c-2,12.8-4,25.6-6,38.4c-1.3,8.4-2.6,16.8-3.8,25.2c-0.2,1.4-0.7,1.8-2,1.8
		c-2.2-0.1-4.4-0.1-6.5,0c-1,0-1.3-0.3-1.3-1.3C282.1,89.6,282.1,88.2,282.1,86.3z M264.9,74c0,0.6,0,1.3,0,1.9
		c0.4,5.6,4.2,8.4,9.6,6.9c3.3-0.9,5.7-3.1,8.1-5.4c0.2-0.3,0.4-0.6,0.4-0.9c0.9-5.8,1.8-11.7,2.7-17.5c0.1-0.5,0.2-1.1-0.5-1.4
		c-5.3-2.3-12.6-3-16.9,3.9C265.8,65.4,265.1,69.6,264.9,74z"/>
	<path class="st0" d="M201.2,110.1c2.8,0,5.5,0,8.3,0c1,0,1.2,0.2,1.1,1.3c-3.5,21.3-7,42.6-10.4,63.9c-0.4,2.2-0.8,4.4-1,6.6
		c-0.1,0.9-0.4,1.2-1.3,1.2c-5.6,0-11.2,0-16.7,0c-0.9,0-1-0.3-0.9-1.1c3.2-19.4,6.3-38.9,9.5-58.3c0.6-4,1.3-7.9,1.8-11.9
		c0.2-1.3,0.7-1.7,2-1.6C196,110.2,198.6,110.1,201.2,110.1z"/>
	<path class="st2" d="M235.1,72.2c-4.4,0-8.7,0-13.1,0c-1.1,0-1.4,0.3-1.4,1.4c0,2.4,0.1,4.9,1.4,7c1.9,3,4.9,4,8.3,4.1
		c5.5,0.1,10.3-1.9,14.9-4.6c0.5-0.3,0.9-0.9,1.5-0.6s0.2,1,0.2,1.5c0,1.9,0,3.8,0,5.7c0.1,0.8-0.3,1.5-1,1.8
		c-6.6,4-14.4,5.6-22,4.5c-8.6-1.2-13.7-6.5-14.2-15.1c-0.7-10.5,2.2-19.9,10.9-26.6c5.2-4.1,12-5.5,18.4-3.9
		c6.6,1.5,10.6,6.7,11.2,14.4c0.2,3,0,6.1-0.5,9.1c-0.2,1.1-0.6,1.5-1.8,1.5C243.6,72.1,239.3,72.2,235.1,72.2z M230.6,65.2h4.8
		c4.7,0,4.8-0.1,3.9-4.9c-0.7-3.6-2.6-5.6-5.8-5.9c-2.4-0.3-4.9,0.5-6.7,2.1c-2.4,2-3.6,4.8-4.7,7.7c-0.3,1,0.1,1,0.9,1
		C225.5,65.2,228.1,65.2,230.6,65.2L230.6,65.2z"/>
	<path class="st2" d="M101.4,79.3c0,2.6,0,5.2,0,7.7c0,0.6-0.4,1.1-0.9,1.3c-6.9,4.2-15.1,5.8-23,4.4c-7.6-1.3-12.4-6.2-13.2-13.9
		c-0.9-9.2,1.1-17.7,7.4-24.7c5.8-6.4,13.1-8.7,21.6-7c6.1,1.2,10.3,6.1,11.3,12.7c0.5,3.7,0.3,7.4-0.3,11c-0.2,1.1-0.7,1.4-1.8,1.4
		c-8.5,0-17,0-25.5,0c-1.3,0-1.8,0.3-1.6,1.6c0.1,1,0,2.1,0.2,3.1c0.9,5,4.1,7.6,9.4,7.7s10.3-1.8,15-4.5
		C100.2,79.7,100.8,79.4,101.4,79.3z M85.3,65.2h5.3c4.1,0,4.1,0,3.4-4.1c-1.1-6.6-7.2-8.9-12.4-4.8c-2.4,2.1-4.1,4.8-4.9,7.9
		c-0.3,1.1,0.4,1,1,1L85.3,65.2z"/>
	<path class="st3" d="M183.7,56.7c-1.3,0.1-3.2-0.6-4.3,0.3s-0.8,2.9-1,4.4c-1.6,9.8-3.1,19.6-4.5,29.4c-0.2,1.1-0.5,1.6-1.7,1.5
		c-2.8-0.1-5.5-0.1-8.3,0c-1.1,0-1.3-0.3-1.1-1.4c1.7-10.8,3.4-21.7,5.1-32.5c0.2-1.3,0-1.9-1.4-1.8c-1.2,0.1-2.4,0-3.6,0
		c-1,0.1-1.2-0.3-1-1.2c0.4-2.3,0.8-4.5,1-6.8c0.1-1,0.6-1.2,1.5-1.2c1.1-0.1,2.3-0.1,3.4,0c1.6,0.2,1.9-0.6,2.1-1.9
		c0.2-1.8,0.6-3.6,0.8-5.4c1.1-8.4,6.3-13.1,15.4-13.8c1.8-0.2,3.7-0.1,5.5,0.1c0.8,0.1,1.2,0.4,1.2,1.3c0,2.2,0,4.5,0.1,6.7
		c0,1.1-0.4,1.2-1.3,1.1c-1.5-0.3-3.1-0.3-4.6-0.1c-2.9,0.4-4.5,1.8-5.1,4.6c-0.4,2-0.6,4.1-1,6.1c-0.2,1,0,1.3,1.1,1.3
		c2-0.1,4,0,6,0c0.9,0,1.2,0.3,1.2,1.2c0,2.3,0,4.6,0,6.9c0,0.8-0.3,1.1-1.1,1.1C186.6,56.7,185.3,56.7,183.7,56.7z"/>
	<path class="st3" d="M328,41.7c-1,6.9-2,13.5-3.1,20.4c1.8-1.6,3.9-2.8,6.1-3.7c7.2-2.4,13.3,1.1,14.4,8.5c1,6.6-0.6,13.3-4.5,18.6
		c-2.8,3.9-7.2,6.5-12.1,6.9c-5.2,0.6-10.5,0-15.5-1.6c-1-0.3-1.3-0.8-1.1-1.8c2.3-14.9,4.6-29.8,6.9-44.8c0.1-0.9,0.4-1.4,1.5-1.5
		C323,42.5,325.4,42.1,328,41.7z M326.2,85.8c3.5,0.1,6.4-1.1,8.2-4.2c2.2-3.6,3-7.9,2.3-12.1c-0.5-3.2-2.8-4.7-6-4.2
		c-2.3,0.3-4,1.7-5.7,3c-0.9,0.7-1.4,1.7-1.5,2.7c-0.4,3.2-1,6.5-1.5,9.7C321.2,85.3,321.5,85.8,326.2,85.8z"/>
	<path class="st3" d="M123.8,56.4c2.7-3.4,5.3-6.1,8.8-7.9c1.8-0.9,3.8-1.5,5.8-1.8c0.9-0.1,1.2,0.2,1.2,1.1c0,2.8-0.1,5.6,0,8.5
		c0,1-0.2,1.4-1.4,1.6c-5.5,0.7-10.5,3.2-14.4,7.1c-1,0.9-1.6,2.2-1.8,3.6c-1.1,7.5-2.3,15-3.4,22.5c-0.1,0.9-0.5,1.3-1.4,1.2
		c-2.9,0-5.8,0-8.6,0c-0.9,0-1.3-0.2-1.2-1.3c1.7-10.8,3.4-21.6,5-32.5c0.5-3.2,1-6.3,1.4-9.5c0.2-1.1,0.6-1.6,1.8-1.5
		c2.2,0.1,4.5,0.1,6.7,0c1.1,0,1.4,0.3,1.3,1.4C123.8,51.2,123.8,53.6,123.8,56.4z"/>
	<path class="st3" d="M364.1,81.3c0.7-1.5,1.5-2.9,2.2-4.4c2.7-5.7,5.4-11.3,8-17c0.3-1.1,1.4-1.7,2.5-1.5c2.1,0.1,4.3,0,6.3,0
		c0.3,0.5-0.1,0.8-0.3,1.1C376.9,71,371,82.5,365.1,94c-1.9,3.7-4.1,7.3-8,9.4c-2.9,1.6-5.9,1.7-9,1.5c-0.8,0-1.1-0.5-1-1.2
		c0-1.7,0-3.3,0-5c0-0.8,0.2-1,1-0.8c1,0.2,1.9,0.3,2.9,0.3c3.3-0.1,6.1-2.4,6.8-5.6c0.1-0.6,0-1.1-0.2-1.7
		c-2.1-10-4.3-20.1-6.5-30.1c-0.3-1.5,0-1.9,1.4-2c2-0.1,4-0.4,6-0.7c0.9-0.1,1.3,0.1,1.4,1.1c1.2,7.3,2.5,14.7,3.9,22L364.1,81.3z"
		/>
	<path class="st3" d="M193.8,92.3c-1.3,0-2.6-0.1-4,0s-1.6-0.4-1.4-1.7c0.9-5.3,1.7-10.7,2.5-16c1.3-8.6,2.7-17.1,4-25.7
		c0.2-1.1,0.5-1.4,1.6-1.4c2.9,0.1,5.8,0,8.6,0c0.9,0,1.1,0.2,1,1.2c-2.2,13.9-4.3,27.8-6.4,41.7c-0.2,1.4-0.7,2.1-2.3,1.9
		C196.3,92.2,195,92.2,193.8,92.3z"/>
	<path class="st3" d="M145,92.3c-1.4,0-2.9,0-4.3,0c-1.1,0-1.3-0.3-1.1-1.3c1.4-8.7,2.7-17.5,4-26.2c0.8-5.2,1.6-10.3,2.4-15.5
		c0.2-1.3,0.6-1.9,2-1.8c2.6,0.1,5.3,0.1,7.9,0c1.1,0,1.5,0.2,1.3,1.4c-1.8,11.6-3.6,23.1-5.4,34.7c-0.4,2.4-0.8,4.9-1.1,7.3
		c-0.1,1-0.4,1.4-1.5,1.4C147.9,92.2,146.5,92.3,145,92.3z"/>
	<path class="st4" d="M143.5,148.9c-4.3-10.6-11.5-19.8-20.9-26.3c-1.5-1-2.8-2.3-4.6-2.7l0,0c0.2-0.3-0.1-0.3-0.2-0.3
		c-5.7-3.4-11.8-6-18.2-7.7c-0.6-0.2-1.6,0-1.4-1s1.1-0.6,1.7-0.6c9.4,0,18.8,0,28.3,0c5.9,0,8.4,2.2,9.5,8c1.8,9.5,3.7,19,5.6,28.5
		C143.5,147.4,143.6,148.1,143.5,148.9z"/>
	<path class="st3" d="M153.2,40.1c-3.4,0-5.8-2.2-5.8-5.3c0.1-4.2,3.6-7.6,7.9-7.5c2.9-0.2,5.4,2,5.6,4.9c0,0.2,0,0.4,0,0.6
		C160.7,37,157.3,40.2,153.2,40.1C153.2,40.1,153.2,40.1,153.2,40.1z"/>
	<path class="st3" d="M201.8,40.1c-3.4,0-5.6-2.2-5.6-5.4c0.1-4.2,3.6-7.5,7.7-7.4c3-0.2,5.5,2.1,5.6,5.1c0,0.1,0,0.3,0,0.4
		C209.5,37,206,40.2,201.8,40.1z"/>
	<path class="st0" d="M117.8,119.5c0.1,0.1,0.4,0.1,0.2,0.3L117.8,119.5z"/>
</g>
</svg>
