<svg id="Capa_1" data-name="Capa 1" xmlns="http://www.w3.org/2000/svg" viewBox="0 0 229 58"><title>logo</title><path d="M52.1,18.46a14.67,14.67,0,0,1,3.73.4A6.88,6.88,0,0,1,58.28,20a4.08,4.08,0,0,1,1.34,1.71A5.81,5.81,0,0,1,60,23.88a6.65,6.65,0,0,1-.38,2.2A4.63,4.63,0,0,1,58.35,28a6.83,6.83,0,0,1-2.5,1.36,12.87,12.87,0,0,1-3.93.5H50.07v7h2.82v1.07H44.78V36.85h2.68V19.53H44.78V18.46Zm-2,10.32h1.65a11.89,11.89,0,0,0,2.59-.23,3.61,3.61,0,0,0,1.68-.8,3.09,3.09,0,0,0,.91-1.49,8.52,8.52,0,0,0,.27-2.33,8.82,8.82,0,0,0-.2-2,2.73,2.73,0,0,0-.79-1.37,3.54,3.54,0,0,0-1.6-.8,11.23,11.23,0,0,0-2.64-.25H50.07Z" style="fill:#fff"/><path d="M77.51,18.46a16.63,16.63,0,0,1,3.59.32,6.8,6.8,0,0,1,2.36.91,3.48,3.48,0,0,1,1.29,1.42A4.36,4.36,0,0,1,85.13,23a5.08,5.08,0,0,1-.27,1.67A4.48,4.48,0,0,1,84,26.08a5.07,5.07,0,0,1-1.38,1.1,7.18,7.18,0,0,1-1.93.71v.05a4.32,4.32,0,0,1,1.52.63,3.22,3.22,0,0,1,1,1A5.14,5.14,0,0,1,83.79,31c.14.51.26,1.08.37,1.69s.2,1.22.28,1.74a6.94,6.94,0,0,0,.35,1.35,2.06,2.06,0,0,0,.58.89,1.52,1.52,0,0,0,1,.31h.35l.48-.06v1l-.49.09-.54.06-.54,0h-.46a5.26,5.26,0,0,1-1.83-.25,2.05,2.05,0,0,1-1-.77,3.48,3.48,0,0,1-.5-1.31c-.1-.52-.19-1.15-.28-1.87-.14-1.06-.27-1.94-.4-2.66a6.07,6.07,0,0,0-.57-1.72,2.05,2.05,0,0,0-1-.92,4.28,4.28,0,0,0-1.68-.28H75.42v8.54h2.82v1.07H70.13V36.85h2.68V19.53H70.13V18.46Zm-2.09,8.78H77.2A10.28,10.28,0,0,0,79.62,27a3.66,3.66,0,0,0,1.57-.76A2.71,2.71,0,0,0,82,24.93,6.34,6.34,0,0,0,82.28,23a5.67,5.67,0,0,0-.2-1.6,2.09,2.09,0,0,0-.74-1.08,3.59,3.59,0,0,0-1.5-.61,13,13,0,0,0-2.49-.19H75.42Z" style="fill:#fff"/><path d="M102.09,19.53V36.85h2.67v1.07h-8V36.85h2.68V19.53H96.79V18.46h8v1.07Z" style="fill:#fff"/><path d="M115.35,32.09h.94a8.41,8.41,0,0,0,.59,2.55A4.7,4.7,0,0,0,118,36.26a3.76,3.76,0,0,0,1.49.85,6.41,6.41,0,0,0,1.77.25,5.71,5.71,0,0,0,1.92-.29,3.38,3.38,0,0,0,1.32-.78,3.05,3.05,0,0,0,.75-1.2,5.09,5.09,0,0,0,.23-1.55,3.63,3.63,0,0,0-.35-1.72,3.25,3.25,0,0,0-1-1.15,6,6,0,0,0-1.49-.83q-.87-.35-1.92-.72c-.69-.25-1.36-.52-2-.79a6.74,6.74,0,0,1-1.66-1,4.4,4.4,0,0,1-1.15-1.51,5.17,5.17,0,0,1-.42-2.22,6.11,6.11,0,0,1,.4-2.27,4.81,4.81,0,0,1,1.19-1.77,5.57,5.57,0,0,1,2-1.13,8.33,8.33,0,0,1,2.72-.4c.41,0,.84,0,1.27.06s.88.1,1.31.18.86.18,1.28.29a11.9,11.9,0,0,1,1.19.37l.16,4.86h-.94a7.16,7.16,0,0,0-.53-2.36,4.24,4.24,0,0,0-1-1.42,3.25,3.25,0,0,0-1.33-.71,5.75,5.75,0,0,0-1.49-.2,5.52,5.52,0,0,0-1.77.25,3.25,3.25,0,0,0-1.25.71,3,3,0,0,0-.74,1.12,4.18,4.18,0,0,0-.25,1.5A3.54,3.54,0,0,0,118,24.3a3.41,3.41,0,0,0,1,1.13,7,7,0,0,0,1.52.84c.6.25,1.25.5,2,.77s1.3.52,1.93.8a6.56,6.56,0,0,1,1.68,1.06,4.66,4.66,0,0,1,1.2,1.56,5.2,5.2,0,0,1,.46,2.31,6,6,0,0,1-.46,2.39A4.61,4.61,0,0,1,126,36.91,5.94,5.94,0,0,1,123.87,38a9.76,9.76,0,0,1-2.81.37c-.46,0-.93,0-1.42-.06s-1-.11-1.44-.2-1-.2-1.4-.31a11.9,11.9,0,0,1-1.27-.4Z" style="fill:#fff"/><path d="M156.79,36.85v-17h-.07l-7,18.24H148.7L142.16,19.9h-.07v17h2.41v1.07h-6.29V36.85h2.68V19.53h-2.68V18.46h6.2L150,34h.05L156,18.46h6.08v1.07H159.4V36.85h2.68v1.07h-7.7V36.85Z" style="fill:#fff"/><path d="M177.17,36.85v1.07h-6.53V36.85h2.55l7-18.6h1.06l6.54,18.6h2.65v1.07h-8.24V36.85H185l-2-5.72h-6.32l-2.13,5.72Zm2.69-14.36L177,30h5.54l-2.66-7.55Z" style="fill:#fff"/></svg>